Coordinates
version=1
nRows=19
nColumns=63
inDegrees=yes

Units are S.I. units (second, meters, Newtons, ...)
If the header above contains a line with 'inDegrees', this indicates whether rotational values are in degrees (yes) or radians (no).

endheader
time	pelvis_tilt	pelvis_list	pelvis_rotation	pelvis_tx	pelvis_ty	pelvis_tz	hip_flexion_r	hip_adduction_r	hip_rotation_r	knee_angle_r	knee_angle_r_beta	ankle_angle_r	subtalar_angle_r	mtp_angle_r	hip_flexion_l	hip_adduction_l	hip_rotation_l	knee_angle_l	knee_angle_l_beta	ankle_angle_l	subtalar_angle_l	mtp_angle_l	L5_S1_Flex_Ext	L5_S1_Lat_Bending	L5_S1_axial_rotation	L4_L5_Flex_Ext	L4_L5_Lat_Bending	L4_L5_axial_rotation	L3_L4_Flex_Ext	L3_L4_Lat_Bending	L3_L4_axial_rotation	L2_L3_Flex_Ext	L2_L3_Lat_Bending	L2_L3_axial_rotation	L1_L2_Flex_Ext	L1_L2_Lat_Bending	L1_L2_axial_rotation	L1_T12_Flex_Ext	L1_T12_Lat_Bending	L1_T12_axial_rotation	Abs_r3	Abs_r2	Abs_r1	Abs_t1	Abs_t2	neck_flexion	neck_bending	neck_rotation	arm_flex_r	arm_add_r	arm_rot_r	elbow_flex_r	pro_sup_r	wrist_flex_r	wrist_dev_r	arm_flex_l	arm_add_l	arm_rot_l	elbow_flex_l	pro_sup_l	wrist_flex_l	wrist_dev_l
5.687500	-2.597453	-1.932989	99.878754	0.077072	0.539514	0.859306	1.572303	1.143401	-11.181485	6.945778	0.121227	24.441123	16.053434	0.000000	3.017305	-1.145101	-6.222202	9.767243	0.170471	20.589108	9.299930	0.000000	-0.047279	-0.058255	-1.917821	-0.087802	-0.077480	-2.037685	-0.077675	-0.141642	-2.037685	-0.054035	-0.141642	-1.678093	-0.043903	-0.118794	-1.558229	-0.027015	-0.090238	-1.438366	-0.337711	-0.658996	-10.666344	0.000000	0.000000	6.977441	-1.237704	9.072096	61.413817	-6.395049	382.844201	140.994188	88.686702	-6.695122	28.712393	-6.585143	-11.765683	9.081588	131.200539	50.800101	-5.983436	9.317359
5.708333	-2.517316	-2.109320	100.101785	0.076790	0.539143	0.858501	1.655143	1.210508	-11.351678	6.867134	0.119854	24.514836	15.998577	0.000000	3.098230	-1.189812	-6.097567	9.532465	0.166373	20.796854	9.671210	0.000000	-0.041861	-0.058394	-2.108423	-0.077740	-0.077664	-2.240200	-0.068774	-0.141978	-2.240200	-0.047843	-0.141978	-1.844871	-0.038872	-0.119076	-1.713094	-0.023919	-0.090452	-1.581318	-0.299010	-0.660560	-11.726419	0.000000	0.000000	7.272985	-1.356135	9.600401	62.400019	-5.766472	383.589362	141.794285	88.699030	-7.375771	29.387976	-6.848220	-11.591711	8.768281	132.384365	48.405176	-5.479186	10.759261
5.729167	-2.458062	-2.278125	100.330221	0.076609	0.538776	0.857675	1.726974	1.263479	-11.527501	6.789725	0.118503	24.593296	15.955263	0.000000	3.181258	-1.229750	-6.012528	9.326991	0.162787	21.025373	10.114575	0.000000	-0.037134	-0.061560	-2.295432	-0.068962	-0.081875	-2.438897	-0.061008	-0.149677	-2.438897	-0.042441	-0.149677	-2.008503	-0.034483	-0.125534	-1.865039	-0.021218	-0.095357	-1.721574	-0.265245	-0.696381	-12.766507	0.000000	0.000000	7.554759	-1.476166	10.112274	63.274103	-5.132919	384.104813	142.476279	88.714356	-7.921593	30.015479	-7.289204	-11.490893	8.455264	133.350294	46.190669	-4.679457	12.141430
5.750000	-2.415351	-2.431614	100.548825	0.076530	0.538433	0.856854	1.782347	1.308244	-11.685131	6.710844	0.117126	24.663083	15.910335	0.000000	3.258856	-1.266080	-5.939222	9.151702	0.159727	21.253721	10.554157	0.000000	-0.033375	-0.066292	-2.471073	-0.061981	-0.088168	-2.625515	-0.054832	-0.161182	-2.625515	-0.038145	-0.161182	-2.162189	-0.030992	-0.135183	-2.007746	-0.019071	-0.102686	-1.853304	-0.238396	-0.749908	-13.743364	0.000000	0.000000	7.812019	-1.570096	10.630706	64.012814	-4.528804	384.403868	143.028961	88.716372	-8.349735	30.550102	-7.833616	-11.440889	8.164925	134.073976	44.243030	-3.720209	13.463541
5.770833	-2.404058	-2.569504	100.749626	0.076581	0.538132	0.856042	1.819464	1.331038	-11.804028	6.630202	0.115719	24.725029	15.849042	0.000000	3.325528	-1.280943	-5.881315	9.002610	0.157125	21.451557	10.961804	0.000000	-0.029130	-0.074199	-2.631577	-0.054097	-0.098685	-2.796050	-0.047858	-0.180407	-2.796050	-0.033293	-0.180407	-2.302630	-0.027050	-0.151307	-2.138156	-0.016645	-0.114934	-1.973683	-0.208072	-0.839354	-14.636040	0.000000	0.000000	8.042458	-1.644656	11.132006	64.585006	-3.966649	384.539749	143.428792	88.694568	-8.785370	30.900479	-8.427880	-11.454127	7.933584	134.554020	42.541243	-2.724581	14.659358
5.791667	-2.421361	-2.681206	100.913094	0.076786	0.537894	0.855230	1.825239	1.337048	-11.877436	6.540446	0.114152	24.771569	15.791954	0.000000	3.370080	-1.281962	-5.870692	8.886309	0.155095	21.613222	11.341221	0.000000	-0.024591	-0.084003	-2.774668	-0.045668	-0.111724	-2.948084	-0.040400	-0.204245	-2.948084	-0.028105	-0.204245	-2.427834	-0.022835	-0.171299	-2.254417	-0.014051	-0.130121	-2.081001	-0.175651	-0.950261	-15.431868	0.000000	0.000000	8.240488	-1.680227	11.685389	64.993660	-3.434023	384.555230	143.654821	88.638320	-9.229293	31.083125	-9.056004	-11.508426	7.714664	134.814991	41.189268	-1.749171	15.828991
5.812500	-2.465374	-2.757767	101.038758	0.077158	0.537739	0.854415	1.788561	1.330951	-11.908771	6.439456	0.112390	24.804014	15.742925	0.000000	3.377850	-1.270111	-5.886966	8.793707	0.153479	21.725739	11.655141	0.000000	-0.020071	-0.096034	-2.898100	-0.037275	-0.127726	-3.079231	-0.032975	-0.233498	-3.079231	-0.022940	-0.233498	-2.535837	-0.018638	-0.195833	-2.354706	-0.011469	-0.148757	-2.173575	-0.143368	-1.086360	-16.118361	0.000000	0.000000	8.390241	-1.666886	12.257531	65.250479	-2.957409	384.479679	143.713330	88.526098	-9.720132	31.083030	-9.698251	-11.602828	7.502907	134.891860	40.186515	-0.793595	17.044451
5.833333	-2.525182	-2.789443	101.112197	0.077670	0.537685	0.853590	1.701428	1.323070	-11.886502	6.328230	0.110448	24.821524	15.696246	0.000000	3.334038	-1.256856	-5.958903	8.716267	0.152128	21.798627	11.933062	0.000000	-0.016387	-0.108779	-2.995989	-0.030433	-0.144676	-3.183239	-0.026923	-0.264485	-3.183239	-0.018729	-0.264485	-2.621491	-0.015217	-0.221822	-2.434241	-0.009364	-0.168499	-2.246992	-0.117053	-1.230530	-16.662794	0.000000	0.000000	8.482684	-1.635367	12.787126	65.396132	-2.583310	384.342129	143.632133	88.348468	-10.245847	30.934326	-10.331951	-11.707118	7.294064	134.806547	39.709957	0.207464	18.318035
5.854167	-2.595050	-2.783939	101.148654	0.078331	0.537724	0.852765	1.572143	1.318822	-11.840171	6.206051	0.108316	24.824364	15.669293	0.000000	3.258202	-1.249274	-6.077926	8.666999	0.151268	21.843434	12.181597	0.000000	-0.012453	-0.122788	-3.071567	-0.023126	-0.163308	-3.263540	-0.020459	-0.298547	-3.263540	-0.014232	-0.298547	-2.687621	-0.011564	-0.250389	-2.495648	-0.007115	-0.190199	-2.303675	-0.088949	-1.389003	-17.083132	0.000000	0.000000	8.501952	-1.567623	13.243673	65.450381	-2.314103	384.172110	143.445060	88.116467	-10.858920	30.692581	-10.942475	-11.838626	7.113772	134.603176	39.676021	1.220239	19.659526
5.875000	-2.681691	-2.730219	101.133037	0.079124	0.537874	0.851920	1.394068	1.309847	-11.751901	6.087737	0.106251	24.821504	15.643105	0.000000	3.118020	-1.233437	-6.214681	8.609760	0.150269	21.845497	12.354733	0.000000	-0.010658	-0.139324	-3.122120	-0.019793	-0.185301	-3.317252	-0.017510	-0.338753	-3.317252	-0.012181	-0.338753	-2.731855	-0.009897	-0.284110	-2.536722	-0.006090	-0.215814	-2.341590	-0.076128	-1.576066	-17.364295	0.000000	0.000000	8.455935	-1.498730	13.548782	65.435734	-2.149683	383.959083	143.191739	87.836803	-11.499264	30.410334	-11.505389	-11.993933	6.983156	134.308779	40.169024	2.271284	21.007939
5.895833	-2.774897	-2.644565	101.046015	0.080067	0.538120	0.851025	1.182571	1.304076	-11.603560	5.965406	0.104116	24.796229	15.623444	0.000000	2.934245	-1.220787	-6.412559	8.556513	0.149339	21.812562	12.490909	0.000000	-0.009122	-0.158293	-3.147552	-0.016941	-0.210530	-3.344274	-0.014987	-0.384875	-3.344274	-0.010426	-0.384875	-2.754108	-0.008471	-0.322792	-2.557386	-0.005212	-0.245196	-2.360664	-0.065159	-1.790646	-17.505740	0.000000	0.000000	8.351933	-1.412253	13.695483	65.351568	-2.070380	383.712427	142.903594	87.536762	-12.112699	30.041484	-12.027067	-12.165363	6.905392	133.963434	41.400965	3.361175	22.233461
5.916667	-2.870471	-2.529237	100.908983	0.081133	0.538436	0.850090	0.944480	1.301618	-11.450921	5.851464	0.102127	24.766309	15.644808	0.000000	2.714083	-1.218214	-6.701111	8.510207	0.148531	21.770078	12.671319	0.000000	-0.008737	-0.179260	-3.154333	-0.016226	-0.238416	-3.351479	-0.014355	-0.435853	-3.351479	-0.009986	-0.435853	-2.760042	-0.008114	-0.365547	-2.562896	-0.004993	-0.277674	-2.365750	-0.062411	-2.027826	-17.543455	0.000000	0.000000	8.202955	-1.338327	13.695373	65.237288	-2.021837	383.437551	142.644064	87.224101	-12.685077	29.793040	-12.481844	-12.362220	6.891639	133.600614	42.906881	4.469536	23.280232
5.937500	-2.972617	-2.389824	100.739832	0.082285	0.538816	0.849161	0.684982	1.298190	-11.255256	5.742078	0.100218	24.719337	15.634136	0.000000	2.462299	-1.213928	-7.008905	8.458188	0.147623	21.705601	12.829431	0.000000	-0.009852	-0.203040	-3.144928	-0.018296	-0.270043	-3.341486	-0.016186	-0.493672	-3.341486	-0.011260	-0.493672	-2.751812	-0.009149	-0.414039	-2.555254	-0.005629	-0.314509	-2.358696	-0.070372	-2.296830	-17.491146	0.000000	0.000000	8.041327	-1.265021	13.544517	65.104060	-1.988078	383.138784	142.434129	86.912372	-13.175043	29.652031	-12.819427	-12.591291	6.960388	133.221071	44.706410	5.503357	24.030785
5.958333	-3.076556	-2.233840	100.554070	0.083498	0.539244	0.848246	0.410767	1.296572	-11.049300	5.635491	0.098358	24.662134	15.614163	0.000000	2.193819	-1.213674	-7.343883	8.407645	0.146741	21.633656	13.010167	0.000000	-0.011085	-0.228676	-3.127140	-0.020586	-0.304140	-3.322586	-0.018212	-0.556004	-3.322586	-0.012669	-0.556004	-2.736248	-0.010294	-0.466317	-2.540801	-0.006334	-0.354220	-2.345355	-0.079180	-2.586833	-17.392215	0.000000	0.000000	7.888971	-1.175869	13.311812	64.962347	-1.931678	382.850368	142.256914	86.609979	-13.586774	29.602263	-13.046687	-12.857112	7.084017	132.848966	46.729990	6.337982	24.464152
5.979167	-3.177090	-2.062814	100.357091	0.084730	0.539706	0.847330	0.123565	1.299785	-10.843554	5.532495	0.096560	24.592800	15.596638	0.000000	1.907587	-1.221360	-7.712774	8.355169	0.145825	21.569892	13.228502	0.000000	-0.012115	-0.254763	-3.104289	-0.022498	-0.338835	-3.298307	-0.019903	-0.619430	-3.298307	-0.013846	-0.619430	-2.716253	-0.011250	-0.519512	-2.522235	-0.006922	-0.394628	-2.328217	-0.086535	-2.881928	-17.265124	0.000000	0.000000	7.799365	-1.085956	13.020648	64.823353	-1.847143	382.601012	142.089098	86.343907	-13.935110	29.608491	-13.185132	-13.146677	7.241105	132.494206	48.706315	6.990843	24.626413
6.000000	-3.261458	-1.884529	100.163271	0.085941	0.540175	0.846376	-0.172348	1.322021	-10.626470	5.426651	0.094713	24.510220	15.549096	0.000000	1.615497	-1.251052	-8.128108	8.308108	0.145004	21.525672	13.517263	0.000000	-0.011730	-0.279260	-3.081022	-0.021783	-0.371416	-3.273586	-0.019271	-0.678993	-3.273586	-0.013406	-0.678993	-2.695894	-0.010892	-0.569467	-2.503330	-0.006702	-0.432574	-2.310766	-0.083785	-3.159045	-17.135718	0.000000	0.000000	7.801177	-0.979204	12.720012	64.697743	-1.734246	382.396971	141.906735	86.135178	-14.181482	29.628129	-13.287791	-13.448114	7.399532	132.182737	50.578343	7.454142	24.571287
6.020833	-3.332361	-1.705935	99.965620	0.087097	0.540620	0.845383	-0.469255	1.359357	-10.332513	5.319443	0.092842	24.417608	15.399746	0.000000	1.311906	-1.285532	-8.481880	8.244614	0.143896	21.480894	13.720995	0.000000	-0.010138	-0.302015	-3.046710	-0.018827	-0.401680	-3.237130	-0.016655	-0.734320	-3.237130	-0.011587	-0.734320	-2.665872	-0.009414	-0.615869	-2.475452	-0.005793	-0.467822	-2.285033	-0.072414	-3.416457	-16.944889	0.000000	0.000000	7.912220	-0.823678	12.414502	64.596315	-1.661217	382.195746	141.696784	85.977656	-14.199239	29.508706	-13.339625	-13.768791	7.614362	131.893653	52.094765	7.804344	24.323688
6.041667	-3.364167	-1.550800	99.835663	0.088090	0.540968	0.844324	-0.752304	1.430515	-10.112702	5.196765	0.090701	24.327976	15.268441	0.000000	1.040172	-1.352093	-8.775473	8.183518	0.142829	21.469197	13.942815	0.000000	-0.004206	-0.319739	-3.015523	-0.007811	-0.425253	-3.203993	-0.006910	-0.777413	-3.203993	-0.004807	-0.777413	-2.638582	-0.003906	-0.652011	-2.450112	-0.002403	-0.495275	-2.261642	-0.030044	-3.616949	-16.771433	0.000000	0.000000	8.156758	-0.646486	12.097622	64.546696	-1.651644	382.051080	141.525103	85.917406	-14.202563	29.549707	-13.403418	-14.069218	7.806871	131.672393	53.382051	8.053564	24.101987
6.062500	-3.369186	-1.412941	99.724852	0.088944	0.541222	0.843263	-1.010218	1.516918	-9.931522	5.084998	0.088750	24.256598	15.166619	0.000000	0.788923	-1.436048	-9.032312	8.123327	0.141779	21.484645	14.152611	0.000000	0.003011	-0.332210	-2.973974	0.005592	-0.441840	-3.159847	0.004947	-0.807737	-3.159847	0.003442	-0.807737	-2.602227	0.002796	-0.677444	-2.416353	0.001721	-0.514594	-2.230480	0.021509	-3.758031	-16.540349	0.000000	0.000000	8.528505	-0.447728	11.798617	64.525569	-1.743395	381.933118	141.346684	85.922228	-14.002452	29.500643	-13.438629	-14.353239	8.023897	131.456352	53.954015	8.299535	23.998154
